
        <svg xmlns="http://www.w3.org/2000/svg" xmlns:xlink="http://www.w3.org/1999/xlink" version="1.1" width="3431.654676258993" 
        height="1208.63309352518" viewBox="0 0 3431.654676258993 1208.63309352518">
			
			<g transform="scale(21.58273381294964) translate(10, 10)">
				<defs id="SvgjsDefs2050"></defs><g id="SvgjsG2051" featureKey="nameLeftFeature-0" transform="matrix(0.9127788481626778,0,0,0.9127788481626778,-1.131845780426658,-10.2231220548295)" fill="#ffffff"><path d="M13.24 40.24 c-0.92 0 -1.88 -0.12 -2.88 -0.32 c-2.96 -0.6 -5.84 -2.04 -8.36 -4.24 l-0.76 -0.68 l3.52 -4 l0.76 0.68 c1.84 1.6 3.88 2.68 5.88 3.08 l0.04 0 c0.6 0.12 1.2 0.2 1.8 0.2 c1 0 1.92 -0.2 2.68 -0.56 c0.96 -0.4 2.08 -1.28 2.08 -2.92 c0 -0.88 -0.44 -1.56 -1.36 -2.12 c-1.12 -0.68 -2.64 -1.04 -3.72 -1.24 c-0.48 -0.08 -4.56 -0.92 -6.44 -1.96 c-1.24 -0.76 -2.2 -1.72 -2.88 -2.84 c-0.68 -1.16 -1 -2.44 -1 -3.84 c0 -1.52 0.48 -3.04 1.4 -4.44 c0.88 -1.16 2.08 -2.12 3.52 -2.8 s3.04 -1.04 4.76 -1.04 c0.68 0 1.4 0.08 2.12 0.16 c2.64 0.48 5.24 1.68 7.52 3.6 l0.76 0.64 l-3.4 4.12 l-0.76 -0.64 c-2.6 -2.12 -4.84 -2.6 -6.28 -2.6 c-0.92 0 -1.76 0.2 -2.48 0.52 c-1.12 0.52 -1.84 1.48 -1.84 2.44 c0 0.88 0.32 1.44 1.08 1.96 s1.92 0.92 3.76 1.32 c0.24 0.04 0.56 0.12 0.88 0.2 c1.68 0.32 3.92 0.8 5.48 1.72 c1.36 0.72 2.4 1.72 3.12 2.88 s1.08 2.52 1.08 3.96 c0 1.8 -0.48 3.4 -1.44 4.76 c-0.84 1.16 -2.08 2.16 -3.72 2.96 c-1.4 0.72 -2.96 1.04 -4.92 1.04 z M48.727000000000004 40 l-4.4 0 l-5 -8.8 l-4.96 8.8 l-4.44 0 l-3.44 -18.32 l4.76 0 l2.08 10.96 l3.84 -6.76 l4.32 0 l3.88 6.76 l2.08 -10.96 l4.72 0 z M64.614 40.36 c-2.52 0 -4.92 -0.96 -6.76 -2.76 c-1.8 -1.84 -2.8 -4.24 -2.8 -6.76 s1 -4.92 2.8 -6.76 c1.8 -1.8 4.2 -2.76 6.76 -2.76 c1.68 0 3.2 0.6 4.52 1.8 l0.2 0.16 l0 -1.6 l4.84 0 l0 18.32 l-4.84 0 l0 -1.44 l-0.2 0.2 c-1.44 1.4 -3.08 1.6 -4.52 1.6 z M64.614 26 c-2.56 0 -4.72 2.24 -4.72 4.84 c0 2.64 2.16 4.84 4.72 4.84 s4.72 -2.2 4.72 -4.84 c0 -2.6 -2.16 -4.84 -4.72 -4.84 z M89.501 21.32 c2.52 0 4.92 0.96 6.76 2.76 c1.8 1.84 2.8 4.24 2.8 6.76 s-1 4.92 -2.8 6.76 c-1.8 1.8 -4.2 2.76 -6.76 2.76 c-1.68 0 -3.2 -0.6 -4.52 -1.8 l-0.2 -0.16 l0 12.24 l-4.84 0 l0 -28.96 l4.84 0 l0 1.44 l0.2 -0.2 c1.44 -1.4 3.08 -1.6 4.52 -1.6 z M89.501 35.68 c2.56 0 4.72 -2.24 4.72 -4.84 c0 -2.64 -2.16 -4.84 -4.72 -4.84 s-4.72 2.2 -4.72 4.84 c0 2.6 2.16 4.84 4.72 4.84 z"></path></g><g id="SvgjsG2052" featureKey="inlineSymbolFeature-0" transform="matrix(0.45,0,0,0.45,94,-4.5)" fill="#ffffff"><path xmlns="http://www.w3.org/2000/svg" d="M54,10v22h12v21.433C66,66.577,57.492,68,50.488,68h-1.581C41.902,68,34,66.577,34,53.433V32h12V10H0v22h12v21.433  C12,75.853,26.356,90,48.907,90h1.581C73.038,90,88,75.853,88,53.433V32h12V10H54z M92,24H79v29.433C79,71.242,68.717,82,50.773,82  h-1.582C31.247,82,21,71.242,21,53.433V24H9v-5h29v5H26v29.433C26,60.436,27.975,77,49.191,77h1.582C71.989,77,74,60.436,74,53.433  V24H63v-5h29V24z"></path></g><g id="SvgjsG2053" featureKey="nameRightFeature-0" transform="matrix(1,0,0,1,144,6.80000114440918)" fill="#ffffff"><path d=""></path></g>
			</g>
		</svg>
	